<svg width="32" height="32" viewBox="0 0 32 32" fill="none" xmlns="http://www.w3.org/2000/svg">
  <defs>
    <linearGradient id="flow_gradient" x1="0" y1="0" x2="32" y2="32" gradientUnits="userSpaceOnUse">
      <stop offset="0%" stop-color="#A855F7" />
      <stop offset="100%" stop-color="#D946EF" />
    </linearGradient>
    <filter id="glow" x="-20%" y="-20%" width="140%" height="140%">
      <feGaussianBlur stdDeviation="0.5" result="blur" />
      <feComposite in="SourceGraphic" in2="blur" operator="over" />
    </filter>
  </defs>
  <path 
    d="M22 10.5C26 10.5 28 13.5 28 16C28 18.5 26 21.5 22 21.5C18 21.5 14 10.5 10 10.5C6 10.5 4 13.5 4 16C4 18.5 6 21.5 10 21.5C14 21.5 18 10.5 22 10.5Z" 
    stroke="url(#flow_gradient)" 
    stroke-width="2" 
    stroke-linecap="round" 
    stroke-linejoin="round"
    filter="url(#glow)"
  />
  <path 
    d="M22 8.5C27 8.5 30 12 30 16C30 20 27 23.5 22 23.5C17 23.5 15 8.5 10 8.5C5 8.5 2 12 2 16C2 20 5 23.5 10 23.5C15 23.5 17 8.5 22 8.5Z" 
    stroke="url(#flow_gradient)" 
    stroke-width="1.2" 
    stroke-opacity="0.6"
    stroke-linecap="round" 
    stroke-linejoin="round"
  />
  <path 
    d="M22 12.5C24.5 12.5 25.5 14.5 25.5 16C25.5 17.5 24.5 19.5 22 19.5C19.5 19.5 12.5 12.5 10 12.5C7.5 12.5 6.5 14.5 6.5 16C6.5 17.5 7.5 19.5 10 19.5C12.5 19.5 19.5 12.5 22 12.5Z" 
    stroke="url(#flow_gradient)" 
    stroke-width="1.2" 
    stroke-opacity="0.8"
    stroke-linecap="round" 
    stroke-linejoin="round"
  />
</svg>
